<svg width="51" height="60" viewBox="0 0 51 60" fill="none" xmlns="http://www.w3.org/2000/svg">
<path d="M11.2885 0H1C0.4477 0 0 0.4477 0 1V20.387L11.2885 0Z" fill="#887D75"/>
<path d="M0 26.6227C0.0325 26.6241 0.0653001 26.6249 0.0984001 26.6249H15.7842C17.012 26.6249 17.9767 27.6738 17.872 28.895L16.5147 44.7247C16.3218 46.9741 19.3423 47.8909 20.4364 45.915L36.7355 16.4787C37.5074 15.0846 36.4973 13.3751 34.9016 13.3751H19.2158C17.988 13.3751 17.0233 12.3262 17.128 11.1051L18.0802 0H33.9091C48.4953 0 55.034 18.3465 43.7528 27.6212L34.934 34.8716C34.3564 35.3465 34.2427 36.1883 34.6734 36.8003L49.891 58.424C50.358 59.087 49.884 60 49.0735 60H1C0.4477 60 0 59.552 0 59V26.6227Z" fill="#006EC7"/>
</svg>
