<svg width="36" height="42" viewBox="0 0 36 42" fill="none" xmlns="http://www.w3.org/2000/svg">
<path d="M26.8116 0.0210183C26.7174 -0.0787312 23.3251 0.0603932 20.3731 3.0975C17.4211 6.13199 17.8752 9.61272 17.9417 9.70197C18.0081 9.79122 22.1509 9.93034 24.7955 6.39974C27.4402 2.86913 26.9057 0.123393 26.8116 0.0210183ZM35.9888 30.82C35.8559 30.568 29.5503 27.5808 30.1374 21.8373C30.7245 16.0912 34.7759 14.5162 34.8396 14.3456C34.9033 14.1749 33.1863 12.2718 31.3669 11.3085C30.0311 10.6293 28.5527 10.2401 27.0386 10.1692C26.7396 10.1613 25.7011 9.91984 23.566 10.4737C22.1592 10.8386 18.9885 12.0198 18.1161 12.0671C17.2411 12.1143 14.638 10.6968 11.8383 10.3215C10.0466 9.99334 8.14689 10.6653 6.7872 11.1825C5.43027 11.697 2.84934 13.1617 1.0438 17.0546C-0.761746 20.9448 0.182564 27.1083 0.858258 29.0245C1.53395 30.9381 2.58903 34.075 4.3835 36.364C5.97858 38.9469 8.09428 40.7398 8.97766 41.3488C9.86105 41.9578 12.3534 42.3621 14.0814 41.5247C15.4715 40.7162 17.9805 40.2516 18.9718 40.2857C19.9605 40.3198 21.91 40.6899 23.9066 41.7006C25.4879 42.2177 26.9832 42.0024 28.4814 41.4249C29.9796 40.8448 32.1479 38.6451 34.679 34.1852C35.6399 32.1115 36.0774 30.9906 35.9888 30.82Z" fill="black"/>
</svg>
