<svg width="44" height="44" viewBox="0 0 44 44" fill="none" xmlns="http://www.w3.org/2000/svg">
<path d="M36.1542 38.7321C32.3386 41.9548 27.3887 44.0001 22.0003 44.0001C13.9823 44.0001 6.94396 39.5829 3.12842 33.1376L4.55687 26.5529L10.8886 25.3774C12.3581 30.1211 16.7924 33.6017 22.0003 33.6017C24.5268 33.6017 26.8729 32.8024 28.8065 31.3845L34.8909 32.3126L36.1542 38.7321Z" fill="#59C36A"/>
<path d="M36.1539 38.7319L34.8906 32.3124L28.8063 31.3843C26.8727 32.8022 24.5265 33.6015 22 33.6015V43.9999C27.3884 43.9999 32.3383 41.9546 36.1539 38.7319Z" fill="#00A66C"/>
<path d="M10.3984 21.9998C10.3984 23.1857 10.5789 24.32 10.8883 25.3772L3.12813 33.1373C1.19453 29.8889 0 26.0732 0 21.9998C0 17.9263 1.19453 14.1107 3.12813 10.8623L9.35627 11.9342L10.8883 18.6225C10.5789 19.6794 10.3984 20.8138 10.3984 21.9998Z" fill="#FFDA2D"/>
<path d="M44 22C44 28.703 40.8977 34.7102 36.1539 38.732L28.8063 31.3844C30.3015 30.3015 31.5648 28.8577 32.3898 27.1563H22C21.278 27.1563 20.7109 26.589 20.7109 25.8672V18.1328C20.7109 17.4109 21.278 16.8438 22 16.8438H42.35C42.9688 16.8438 43.5102 17.2819 43.6133 17.9007C43.8711 19.2414 44 20.6335 44 22Z" fill="#4086F4"/>
<path d="M32.3899 27.1563C31.5649 28.8577 30.3015 30.3015 28.8063 31.3844L36.1539 38.732C40.8977 34.7102 44 28.7031 44 22C44 20.6335 43.8711 19.2414 43.6132 17.9007C43.5102 17.2819 42.9687 16.8438 42.3499 16.8438H22V27.1563H32.3899Z" fill="#376AED"/>
<path d="M36.5151 6.14445C36.5409 6.50538 36.3862 6.84062 36.1542 7.09835L30.637 12.5898C30.1988 13.0538 29.4769 13.1054 28.9613 12.7187C26.9244 11.1977 24.5268 10.3984 22.0003 10.3984C16.7924 10.3984 12.3581 13.8788 10.8886 18.6227L3.12842 10.8625C6.94396 4.41719 13.9823 0 22.0003 0C27.1308 0 32.1323 1.89062 36.0511 5.19054C36.3347 5.42266 36.4893 5.78351 36.5151 6.14445Z" fill="#FF7F23"/>
<path d="M28.9609 12.7187C29.4766 13.1055 30.1984 13.0538 30.6366 12.5898L36.1538 7.09835C36.386 6.84062 36.5406 6.50547 36.5148 6.14445C36.4889 5.78342 36.3343 5.42266 36.0507 5.19054C32.132 1.89062 27.1305 0 22 0V10.3984C24.5265 10.3984 26.9241 11.1977 28.9609 12.7187Z" fill="#F03800"/>
</svg>
