<svg width="398" height="426" viewBox="0 0 398 426" fill="none" xmlns="http://www.w3.org/2000/svg">
<g filter="url(#filter0_d_192_3011)">
<circle cx="199" cy="183" r="139" fill="#EFF2F6"/>
</g>
<g filter="url(#filter1_d_192_3011)">
<rect x="100.516" y="96.0913" width="196.79" height="225.73" rx="20" fill="white"/>
</g>
<rect x="135.243" y="232.687" width="127.335" height="13.8911" rx="6.94553" fill="#887D75"/>
<circle cx="198.911" cy="174.807" r="43.9884" fill="#6FCD38" fill-opacity="0.1"/>
<rect x="114.407" y="260.469" width="169.008" height="40.5156" rx="8" fill="#E8EBF0"/>
<circle cx="198.911" cy="174.808" r="23.1518" fill="#6FCD38"/>
<path d="M192.833 175.675L196.306 179.148L204.988 170.466" stroke="white" stroke-width="2" stroke-linecap="round" stroke-linejoin="round"/>
<circle cx="66" cy="307" r="3" transform="rotate(180 66 307)" fill="#887D75"/>
<path d="M77.673 291.351L75.5363 293.488L73.9914 291.943L76.1282 289.806L73.7132 287.391L75.3409 285.764L77.7559 288.178L79.8986 286.036L81.4435 287.581L79.3008 289.723L81.6151 292.038L79.9874 293.665L77.673 291.351Z" fill="#006EC7"/>
<circle cx="2.5" cy="2.5" r="2.5" transform="matrix(1 0 0 -1 112 54)" fill="#887D75"/>
<circle cx="3" cy="3" r="3" transform="matrix(1 0 0 -1 80 60)" fill="#887D75"/>
<path d="M77.661 91.0884L79.7977 93.2252L81.3426 91.6803L79.2058 89.5435L81.6208 87.1286L79.9931 85.5008L77.5781 87.9158L75.4354 85.7731L73.8905 87.318L76.0332 89.4607L73.7189 91.775L75.3466 93.4028L77.661 91.0884Z" fill="#006EC7"/>
<path d="M81 224.01C79.6328 223.894 76.5703 224.771 75.2578 229.204C73.6172 234.745 73.6172 245.827 60 246" stroke="#006EC7" stroke-width="4" stroke-linecap="round"/>
<path d="M339.373 272.391C335.912 272.352 328.738 270.05 327.73 261.157C326.798 252.936 337.482 253.234 334.988 259.832C332.878 265.411 316.92 271.219 310.977 250.007" stroke="#006EC7" stroke-width="4" stroke-linecap="round"/>
<path d="M257.118 57.8081C261.528 54.4218 271.839 48.4752 283.731 54.7624" stroke="#006EC7" stroke-width="4" stroke-linecap="round"/>
<defs>
<filter id="filter0_d_192_3011" x="40" y="28" width="318" height="318" filterUnits="userSpaceOnUse" color-interpolation-filters="sRGB">
<feFlood flood-opacity="0" result="BackgroundImageFix"/>
<feColorMatrix in="SourceAlpha" type="matrix" values="0 0 0 0 0 0 0 0 0 0 0 0 0 0 0 0 0 0 127 0" result="hardAlpha"/>
<feOffset dy="4"/>
<feGaussianBlur stdDeviation="10"/>
<feComposite in2="hardAlpha" operator="out"/>
<feColorMatrix type="matrix" values="0 0 0 0 0.905882 0 0 0 0 0.933333 0 0 0 0 0.984314 0 0 0 0.15 0"/>
<feBlend mode="normal" in2="BackgroundImageFix" result="effect1_dropShadow_192_3011"/>
<feBlend mode="normal" in="SourceGraphic" in2="effect1_dropShadow_192_3011" result="shape"/>
</filter>
<filter id="filter1_d_192_3011" x="0.515625" y="0.0913086" width="396.79" height="425.73" filterUnits="userSpaceOnUse" color-interpolation-filters="sRGB">
<feFlood flood-opacity="0" result="BackgroundImageFix"/>
<feColorMatrix in="SourceAlpha" type="matrix" values="0 0 0 0 0 0 0 0 0 0 0 0 0 0 0 0 0 0 127 0" result="hardAlpha"/>
<feOffset dy="4"/>
<feGaussianBlur stdDeviation="50"/>
<feComposite in2="hardAlpha" operator="out"/>
<feColorMatrix type="matrix" values="0 0 0 0 0.388235 0 0 0 0 0.419608 0 0 0 0 0.505882 0 0 0 0.15 0"/>
<feBlend mode="normal" in2="BackgroundImageFix" result="effect1_dropShadow_192_3011"/>
<feBlend mode="normal" in="SourceGraphic" in2="effect1_dropShadow_192_3011" result="shape"/>
</filter>
</defs>
</svg>
